<svg xmlns="http://www.w3.org/2000/svg" xmlns:xlink="http://www.w3.org/1999/xlink" width="49" height="49" viewBox="0 0 49 49">
  <defs>
    <radialGradient id="radial-gradient" cx="0.045" cy="1.135" r="1.438" gradientTransform="matrix(0.664, -0.748, 0.748, 0.664, -0.834, 0.415)" gradientUnits="objectBoundingBox">
      <stop offset="0" stop-color="#fec053"/>
      <stop offset="0.327" stop-color="#f2203e"/>
      <stop offset="0.648" stop-color="#b729a8"/>
      <stop offset="1" stop-color="#5300a5"/>
    </radialGradient>
  </defs>
  <g id="logo" transform="translate(-29.5 -21.715)">
    <circle id="椭圆_3232" data-name="椭圆 3232" cx="24" cy="24" r="24" transform="translate(30 22.215)" stroke="rgba(0,0,0,0)" stroke-width="1" fill="url(#radial-gradient)"/>
    <g id="组_6865" data-name="组 6865" transform="translate(36.923 35.29)">
      <path id="联合_70" data-name="联合 70" d="M15.936,20.715v-2.82a4.418,4.418,0,0,0-4.413-4.413H6.251a4.418,4.418,0,0,0-4.413,4.413v2.82a.919.919,0,1,1-1.838,0v-2.82a6.258,6.258,0,0,1,6.251-6.251h5.273a6.258,6.258,0,0,1,6.251,6.251v2.82a.919.919,0,0,1-1.839,0Zm10.471-1.839v-2.3a3.426,3.426,0,0,0-3.421-3.421H18.692a3.414,3.414,0,0,0-1.331.268.919.919,0,1,1-.716-1.692,5.217,5.217,0,0,1,2.047-.414h4.294a5.266,5.266,0,0,1,5.26,5.26v2.3a.919.919,0,0,1-1.839,0ZM3.371,5.516a5.516,5.516,0,1,1,5.517,5.515A5.522,5.522,0,0,1,3.371,5.516Zm1.838,0A3.678,3.678,0,1,0,8.888,1.839,3.682,3.682,0,0,0,5.21,5.516Zm10.968.677a4.662,4.662,0,1,1,4.663,4.662A4.668,4.668,0,0,1,16.177,6.193Zm1.838,0A2.823,2.823,0,1,0,20.84,3.371,2.827,2.827,0,0,0,18.016,6.193ZM29.961,9.309V7.66H28.311a.919.919,0,1,1,0-1.838h1.649V4.173a.92.92,0,0,1,1.839,0V5.822h1.648a.919.919,0,1,1,0,1.838H31.8V9.309a.92.92,0,0,1-1.839,0Z" transform="translate(0 0)" fill="#fafafa" stroke="rgba(0,0,0,0)" stroke-width="1"/>
    </g>
  </g>
</svg>
