<svg xmlns="http://www.w3.org/2000/svg" width="23" height="22.106" viewBox="0 0 23 22.106">
  <g id="icon01" transform="translate(-0.02 -0.02)">
    <rect id="矩形_3355" data-name="矩形 3355" width="23" height="22.106" rx="4" transform="translate(0.02 0.02)" fill="#fff3fc"/>
    <g id="路径_28311" data-name="路径 28311" transform="translate(5.595 19.541)" fill="#0bc1ae" stroke-linecap="round" stroke-linejoin="round">
      <path d="M 6.932116031646729 0.1127982214093208 L 6.432116031646729 0.1127982214093208 L 5.250096321105957 0.1127982214093208 L 4.750096321105957 0.1127982214093208 L 4.750096321105957 -0.3872017860412598 L 4.750096321105957 -1.457555651664734 C 3.624173164367676 -1.623944878578186 2.685159921646118 -2.019761562347412 1.954006195068359 -2.637051820755005 C 1.092176198959351 -3.364681720733643 0.6410362124443054 -4.35625171661377 0.6131262183189392 -5.58424186706543 L 0.601506233215332 -6.095601558685303 L 1.112996220588684 -6.095601558685303 L 3.883376121520996 -6.095601558685303 L 4.343446254730225 -6.095601558685303 L 4.381646156311035 -5.637121677398682 C 4.414314270019531 -5.245113372802734 4.532163143157959 -4.959872722625732 4.750096321105957 -4.763686656951904 L 4.750096321105957 -7.1288161277771 C 4.014163017272949 -7.323886871337891 3.399300098419189 -7.521801471710205 2.918346166610718 -7.71856164932251 C 2.29944634437561 -7.971751689910889 1.759526252746582 -8.382771492004395 1.313576221466064 -8.940212249755859 C 0.8487062454223633 -9.52131175994873 0.6129962205886841 -10.30372142791748 0.6129962205886841 -11.26573181152344 C 0.6129962205886841 -12.48193168640137 1.058456182479858 -13.4906120300293 1.937006235122681 -14.26375198364258 C 2.685349941253662 -14.92231559753418 3.629999876022339 -15.33673858642578 4.750096321105957 -15.49880599975586 L 4.750096321105957 -16.54800224304199 L 4.750096321105957 -17.04800224304199 L 5.250096321105957 -17.04800224304199 L 6.432116031646729 -17.04800224304199 L 6.932116031646729 -17.04800224304199 L 6.932116031646729 -16.54800224304199 L 6.932116031646729 -15.49812507629395 C 8.009968757629395 -15.34138107299805 8.904332160949707 -14.95882225036621 9.595226287841797 -14.35804176330566 C 10.40217590332031 -13.65634155273438 10.86028575897217 -12.68520164489746 10.95682621002197 -11.47160148620605 L 10.99974632263184 -10.93195152282715 L 10.45839595794678 -10.93195152282715 L 7.669556140899658 -10.93195152282715 L 7.218616008758545 -10.93195152282715 L 7.172206401824951 -11.38050174713135 C 7.146993160247803 -11.62423038482666 7.068333148956299 -11.83134269714355 6.932116031646729 -12.01205825805664 L 6.932116031646729 -9.824015617370605 C 7.700021743774414 -9.619584083557129 8.329588890075684 -9.419184684753418 8.80733585357666 -9.226982116699219 C 9.420226097106934 -8.980422019958496 9.957305908203125 -8.576042175292969 10.40364646911621 -8.025092124938965 C 10.86978626251221 -7.449691772460938 11.10614585876465 -6.669581890106201 11.10615634918213 -5.706421852111816 C 11.10615634918213 -4.979561805725098 10.918625831604 -4.289031982421875 10.54877662658691 -3.654001712799072 C 10.17929649353027 -3.019611835479736 9.632865905761719 -2.492251873016357 8.924646377563477 -2.08657169342041 C 8.345644950866699 -1.75489616394043 7.677109241485596 -1.535741090774536 6.932116031646729 -1.432853937149048 L 6.932116031646729 -0.3872017860412598 L 6.932116031646729 0.1127982214093208 Z M 6.932116031646729 -6.412828922271729 L 6.932116031646729 -4.664240837097168 C 7.017271041870117 -4.719768524169922 7.092548370361328 -4.784236431121826 7.158616065979004 -4.857991695404053 C 7.339966297149658 -5.060431957244873 7.428126335144043 -5.301711559295654 7.428126335144043 -5.595601558685303 C 7.428126335144043 -5.865221977233887 7.354186058044434 -6.061221599578857 7.195436000823975 -6.212411880493164 C 7.12151575088501 -6.282816410064697 7.033615589141846 -6.34968900680542 6.932116031646729 -6.412828922271729 Z M 4.750096321105957 -12.29578304290771 C 4.679311275482178 -12.25095272064209 4.615757942199707 -12.19891452789307 4.55902624130249 -12.13948154449463 C 4.391116142272949 -11.96357154846191 4.309496402740479 -11.72005176544189 4.309496402740479 -11.39501190185547 C 4.309496402740479 -11.11803150177002 4.381716251373291 -10.91500186920166 4.536776065826416 -10.75607204437256 C 4.597335815429688 -10.69399070739746 4.668519973754883 -10.63478755950928 4.750096321105957 -10.57858562469482 L 4.750096321105957 -12.29578304290771 Z" stroke="none"/>
      <path d="M 6.432116031646729 -0.3872017860412598 L 6.432116031646729 -1.88323175907135 C 7.294016361236572 -1.944791793823242 8.04201602935791 -2.157191753387451 8.676126480102539 -2.520431756973267 C 9.310235977172852 -2.88366174697876 9.790426254272461 -3.345401763916016 10.1167163848877 -3.905641794204712 C 10.44300651550293 -4.465881824493408 10.60615634918213 -5.066141605377197 10.60615634918213 -5.706411838531494 C 10.60614585876465 -6.55601167678833 10.40914630889893 -7.223991870880127 10.01513576507568 -7.710351943969727 C 9.621126174926758 -8.196711540222168 9.156326293945312 -8.547641754150391 8.620716094970703 -8.76311206817627 C 8.085105895996094 -8.978591918945312 7.355576038360596 -9.203301429748535 6.432116031646729 -9.437252044677734 L 6.432116031646729 -12.92798137664795 C 6.789186000823975 -12.81716156005859 7.075466156005859 -12.62939167022705 7.29093599319458 -12.36466217041016 C 7.506406307220459 -12.09993171691895 7.63261604309082 -11.78903198242188 7.669556140899658 -11.43195152282715 L 10.45839595794678 -11.43195152282715 C 10.37220668792725 -12.5154914855957 9.975126266479492 -13.36509132385254 9.267136573791504 -13.98074150085449 C 8.559145927429199 -14.59639167785645 7.61414623260498 -14.95347213745117 6.432116031646729 -15.05197143554688 L 6.432116031646729 -16.54800224304199 L 5.250096321105957 -16.54800224304199 L 5.250096321105957 -15.05197143554688 C 4.031126022338867 -14.95347213745117 3.036866188049316 -14.56561183929443 2.26732611656189 -13.88839149475098 C 1.49777626991272 -13.211181640625 1.112996220588684 -12.33696174621582 1.112996220588684 -11.26573181152344 C 1.112996220588684 -10.4161319732666 1.310006260871887 -9.745071411132812 1.704016208648682 -9.252552032470703 C 2.098026275634766 -8.760031700134277 2.565906286239624 -8.402961730957031 3.107666254043579 -8.181331634521484 C 3.649436235427856 -7.959692001342773 4.363576412200928 -7.738061904907227 5.250096321105957 -7.516421794891357 L 5.250096321105957 -3.988751888275146 C 4.412826061248779 -4.173451900482178 3.95724630355835 -4.709061622619629 3.883376121520996 -5.595601558685303 L 1.112996220588684 -5.595601558685303 C 1.137626171112061 -4.512051582336426 1.525476217269897 -3.653221845626831 2.276556253433228 -3.019101858139038 C 3.027636289596558 -2.384981870651245 4.018815994262695 -2.012511730194092 5.250096321105957 -1.901701807975769 L 5.250096321105957 -0.3872017860412598 L 6.432116031646729 -0.3872017860412598 M 6.432116031646729 -7.183971881866455 C 6.91231632232666 -7.02390193939209 7.2817063331604 -6.820741653442383 7.540266036987305 -6.574481964111328 C 7.798836231231689 -6.328221797943115 7.928126335144043 -6.001921653747559 7.928126335144043 -5.595601558685303 C 7.928126335144043 -5.176951885223389 7.795756340026855 -4.819881916046143 7.531036376953125 -4.524361610412598 C 7.266306400299072 -4.228851795196533 6.900006294250488 -4.038002014160156 6.432116031646729 -3.951811790466309 L 6.432116031646729 -7.183971881866455 M 5.250096321105957 -12.98339176177979 L 5.250096321105957 -9.788171768188477 C 4.782206058502197 -9.9482421875 4.425136089324951 -10.15448188781738 4.178886413574219 -10.40690135955811 C 3.932626247406006 -10.65931224822998 3.809496164321899 -10.98868179321289 3.809496164321899 -11.39501190185547 C 3.809496164321899 -11.8505916595459 3.938786268234253 -12.21383190155029 4.197346210479736 -12.48471164703369 C 4.455916404724121 -12.75560188293457 4.806836128234863 -12.92182159423828 5.250096321105957 -12.98339176177979 M 6.432116031646729 0.6127982139587402 L 5.250096321105957 0.6127982139587402 C 4.697816371917725 0.6127982139587402 4.250096321105957 0.1650782227516174 4.250096321105957 -0.3872017860412598 L 4.250096321105957 -1.037963151931763 C 3.217489004135132 -1.249667286872864 2.339337587356567 -1.657353281974792 1.631446242332458 -2.255011796951294 C 0.655356228351593 -3.079101800918579 0.144566223025322 -4.195391654968262 0.1132562234997749 -5.572881698608398 C 0.1071362271904945 -5.841961860656738 0.2097562253475189 -6.102151870727539 0.3978962302207947 -6.294631958007812 C 0.5860462188720703 -6.487101554870605 0.84383624792099 -6.595601558685303 1.112996220588684 -6.595601558685303 L 3.883376121520996 -6.595601558685303 C 4.012509822845459 -6.595601558685303 4.136309146881104 -6.571016788482666 4.250096321105957 -6.52613353729248 L 4.250096321105957 -6.74683666229248 C 3.653981924057007 -6.914655208587646 3.152152299880981 -7.082688808441162 2.729026317596436 -7.255791664123535 C 2.030456304550171 -7.541571617126465 1.422866225242615 -8.003201484680176 0.9231462478637695 -8.627861976623535 C 0.385566234588623 -9.29984188079834 0.1129962280392647 -10.18735218048096 0.1129962280392647 -11.26573181152344 C 0.1129962280392647 -12.63192176818848 0.6155462265014648 -13.76688194274902 1.606696248054504 -14.6391019821167 C 2.331197023391724 -15.27668952941895 3.217571973800659 -15.70529937744141 4.250096321105957 -15.91871738433838 L 4.250096321105957 -16.54800224304199 C 4.250096321105957 -17.10028266906738 4.697816371917725 -17.54800224304199 5.250096321105957 -17.54800224304199 L 6.432116031646729 -17.54800224304199 C 6.984396457672119 -17.54800224304199 7.432116031646729 -17.10028266906738 7.432116031646729 -16.54800224304199 L 7.432116031646729 -15.91785335540771 C 8.418215751647949 -15.71388530731201 9.253439903259277 -15.31785202026367 9.92331600189209 -14.73534202575684 C 10.83254623413086 -13.9447021484375 11.34796619415283 -12.85996150970459 11.45524597167969 -11.5112419128418 C 11.47736644744873 -11.23313140869141 11.38229656219482 -10.95841217041016 11.19300651550293 -10.75346183776855 C 11.00370597839355 -10.54850196838379 10.73739624023438 -10.43195152282715 10.45839595794678 -10.43195152282715 L 7.669556140899658 -10.43195152282715 C 7.587923526763916 -10.43195152282715 7.508352279663086 -10.44179344177246 7.432116031646729 -10.46038246154785 L 7.432116031646729 -10.20594215393066 C 8.055985450744629 -10.03096580505371 8.571080207824707 -9.860971450805664 8.993956565856934 -9.690852165222168 C 9.68665599822998 -9.412181854248047 10.29165649414062 -8.957632064819336 10.79215621948242 -8.339831352233887 C 11.33227634429932 -7.673111915588379 11.60614585876465 -6.787111759185791 11.60615634918213 -5.706421852111816 C 11.60615634918213 -4.889991760253906 11.39576625823975 -4.11480188369751 10.9808464050293 -3.402361869812012 C 10.5666561126709 -2.691211700439453 9.958466529846191 -2.10254168510437 9.173175811767578 -1.652711749076843 C 8.653270721435547 -1.354890584945679 8.070231437683105 -1.140165448188782 7.432116031646729 -1.010831952095032 L 7.432116031646729 -0.3872017860412598 C 7.432116031646729 0.1650782227516174 6.984396457672119 0.6127982139587402 6.432116031646729 0.6127982139587402 Z" stroke="none" fill="#fff"/>
    </g>
    <g id="矩形_3592" data-name="矩形 3592" transform="translate(5.094 15.315) rotate(-45)" fill="#0bc1ae" stroke="#fff" stroke-linecap="round" stroke-linejoin="round" stroke-width="1">
      <rect width="16.534" height="2.024" stroke="none"/>
      <rect x="-0.5" y="-0.5" width="17.534" height="3.024" fill="none"/>
    </g>
  </g>
</svg>
