<svg xmlns="http://www.w3.org/2000/svg" width="22.794" height="21.812" viewBox="0 0 22.794 21.812">
  <g id="icon02" transform="translate(-0.02 -0.02)">
    <rect id="矩形_3355" data-name="矩形 3355" width="22.794" height="21.812" rx="4" transform="translate(0.02 0.02)" fill="#fff3fc"/>
    <g id="组_6905" data-name="组 6905" transform="translate(4.203 3.187)">
      <path id="矩形_3358" data-name="矩形 3358" d="M4.178,0h.336A4.178,4.178,0,0,1,8.692,4.178v0A1.973,1.973,0,0,1,6.719,6.151H1.973A1.973,1.973,0,0,1,0,4.178v0A4.178,4.178,0,0,1,4.178,0Z" transform="translate(5.776 7.585)" fill="#0bc1ae" stroke="#fff" stroke-linecap="round" stroke-linejoin="round" stroke-width="1"/>
      <circle id="椭圆_3254" data-name="椭圆 3254" cx="2.942" cy="2.942" r="2.942" transform="translate(7.113 1.701)" fill="#0bc1ae" stroke="#fff" stroke-linecap="round" stroke-linejoin="round" stroke-width="1"/>
      <circle id="椭圆_3255" data-name="椭圆 3255" cx="3.358" cy="3.358" r="3.358" transform="translate(1.526 0)" fill="#0bc1ae" stroke="#fff" stroke-linecap="round" stroke-linejoin="round" stroke-width="1"/>
      <path id="矩形_3359" data-name="矩形 3359" d="M4.768,0h.384A4.768,4.768,0,0,1,9.921,4.768v0A2.252,2.252,0,0,1,7.668,7.021H2.252A2.252,2.252,0,0,1,0,4.768v0A4.768,4.768,0,0,1,4.768,0Z" transform="translate(0 6.716)" fill="#0bc1ae" stroke="#fff" stroke-linecap="round" stroke-linejoin="round" stroke-width="1"/>
    </g>
  </g>
</svg>
